<?xml version="1.0" standalone="no"?>
<!DOCTYPE svg PUBLIC "-//W3C//DTD SVG 20010904//EN"
 "http://www.w3.org/TR/2001/REC-SVG-20010904/DTD/svg10.dtd">
<svg version="1.0" xmlns="http://www.w3.org/2000/svg"
 width="867.000000pt" height="675.000000pt" viewBox="0 0 867.000000 675.000000"
 preserveAspectRatio="xMidYMid meet">

<g transform="translate(0.000000,675.000000) scale(0.100000,-0.100000)"
fill="#000000" stroke="none">
<path d="M473 6549 c-149 -9 -229 -25 -253 -49 -12 -12 -20 -39 -24 -82 -13
-153 -15 -1347 -5 -3658 9 -2353 11 -2486 28 -2510 9 -14 34 -33 54 -43 33
-17 87 -19 702 -24 l665 -6 0 3191 0 3192 -522 -1 c-288 -1 -578 -5 -645 -10z"/>
<path d="M4450 3370 l0 -3190 705 0 705 0 0 3190 0 3190 -705 0 -705 0 0
-3190z"/>
<path d="M6565 6548 c-3 -7 -4 -310 -3 -673 l3 -660 963 -3 962 -2 0 612 0
613 -23 40 c-12 22 -38 50 -56 62 l-34 23 -904 0 c-714 0 -905 -3 -908 -12z"/>
<path d="M2340 3365 l0 -675 705 0 705 0 0 675 0 675 -705 0 -705 0 0 -675z"/>
<path d="M6560 3365 l0 -675 740 0 740 0 -6 168 c-3 92 -11 387 -18 655 -7
268 -15 490 -18 492 -5 5 -1134 35 -1320 35 l-118 0 0 -675z"/>
</g>
</svg>
